<svg xmlns="http://www.w3.org/2000/svg" width="35.272" height="58.088" viewBox="0 0 35.272 58.088">
  <g id="Group_79" data-name="Group 79" transform="translate(-2110.205 -1492.292)">
    <path id="Path_59" data-name="Path 59" d="M95.957,65.557A4.841,4.841,0,1,0,100.8,70.4a4.847,4.847,0,0,0-4.841-4.841" transform="translate(2031.884 1438.832)" fill="#fff"/>
    <path id="Path_60" data-name="Path 60" d="M97.989,50.786A17.7,17.7,0,0,0,88.6,41.4a17.646,17.646,0,0,0-23.112,9.387A17.678,17.678,0,0,0,65.5,64.541L79.521,96.655a2.421,2.421,0,0,0,4.437,0l14.031-32.14a17.685,17.685,0,0,0,0-13.729M93.541,62.6,81.74,89.636,69.95,62.627a12.831,12.831,0,0,1,0-9.954l0,0A12.8,12.8,0,0,1,93.541,62.6" transform="translate(2046.101 1452.273)" fill="#fff"/>
  </g>
</svg>
