<svg xmlns="http://www.w3.org/2000/svg" width="58.094" height="48.412" viewBox="0 0 58.094 48.412">
  <path id="Path_61" data-name="Path 61" d="M346.172,54.839a15.735,15.735,0,0,0-22.251,0,15.868,15.868,0,0,0-2.188,2.73,15.875,15.875,0,0,0-2.188-2.731,15.734,15.734,0,0,0-22.276,22.226L315.154,95.49s.009.008.014.012.007.009.01.012a8.426,8.426,0,0,0,13.107,0l.011-.014s.009-.007.013-.011l17.863-18.4a15.736,15.736,0,0,0,0-22.251m-3.447,18.853L324.857,92.1c-1.2,1.2-2.131,1.707-3.124,1.707s-1.926-.509-3.119-1.7l-17.9-18.436a10.893,10.893,0,1,1,18.595-7.7,2.42,2.42,0,1,0,4.841,0,10.893,10.893,0,1,1,18.572,7.727" transform="translate(-292.685 -50.232)" fill="#fff"/>
</svg>
