<svg xmlns="http://www.w3.org/2000/svg" width="58.094" height="58.095" viewBox="0 0 58.094 58.095">
  <g id="Group_80" data-name="Group 80" transform="translate(-2258.141 -1492.285)">
    <path id="Path_62" data-name="Path 62" d="M340.562,337.852a12.1,12.1,0,1,0,12.1,12.1,12.118,12.118,0,0,0-12.1-12.1m0,19.368a7.263,7.263,0,1,1,7.263-7.263,7.271,7.271,0,0,1-7.263,7.263" transform="translate(1946.627 1171.377)" fill="#fff"/>
    <path id="Path_63" data-name="Path 63" d="M399.463,358.294H392.2a2.42,2.42,0,0,0,0,4.841h7.262a2.42,2.42,0,0,0,0-4.841" transform="translate(1914.351 1160.617)" fill="#fff"/>
    <path id="Path_64" data-name="Path 64" d="M304.789,360.716a2.421,2.421,0,0,0-2.42-2.421h-7.262a2.42,2.42,0,0,0,0,4.841h7.262a2.421,2.421,0,0,0,2.42-2.42" transform="translate(1965.455 1160.616)" fill="#fff"/>
    <path id="Path_65" data-name="Path 65" d="M351.32,314.185h0a2.42,2.42,0,0,0,2.42-2.421V304.5a2.42,2.42,0,0,0-2.42-2.42h0a2.42,2.42,0,0,0-2.42,2.421v7.262a2.42,2.42,0,0,0,2.42,2.42" transform="translate(1935.869 1190.203)" fill="#fff"/>
    <path id="Path_66" data-name="Path 66" d="M351.321,399.178a2.421,2.421,0,0,0-2.42,2.42v7.262a2.42,2.42,0,0,0,4.841,0V401.6a2.421,2.421,0,0,0-2.421-2.42" transform="translate(1935.867 1139.099)" fill="#fff"/>
    <path id="Path_67" data-name="Path 67" d="M380.228,328.522a2.413,2.413,0,0,0,1.712-.709l5.134-5.136a2.421,2.421,0,1,0-3.424-3.422l-5.134,5.136a2.42,2.42,0,0,0,1.712,4.132" transform="translate(1920.653 1181.539)" fill="#fff"/>
    <path id="Path_68" data-name="Path 68" d="M314.995,387.912l-5.135,5.135a2.421,2.421,0,1,0,3.423,3.423l5.135-5.135a2.421,2.421,0,1,0-3.423-3.423" transform="translate(1956.789 1145.402)" fill="#fff"/>
    <path id="Path_69" data-name="Path 69" d="M314.994,327.813a2.421,2.421,0,1,0,3.422-3.424l-5.136-5.134a2.42,2.42,0,1,0-3.422,3.424Z" transform="translate(1956.79 1181.537)" fill="#fff"/>
    <path id="Path_70" data-name="Path 70" d="M381.94,387.911a2.421,2.421,0,1,0-3.423,3.423l5.135,5.135a2.421,2.421,0,1,0,3.423-3.423Z" transform="translate(1920.653 1145.402)" fill="#fff"/>
  </g>
</svg>
