<svg xmlns="http://www.w3.org/2000/svg" width="58.094" height="48.411" viewBox="0 0 58.094 48.411">
  <path id="Path_71" data-name="Path 71" d="M343.518,568.261h-12.1v-4.839a2.42,2.42,0,0,0-2.42-2.42H314.471a2.42,2.42,0,0,0-2.42,2.42v4.839h-12.1a7.27,7.27,0,0,0-7.261,7.262v26.628a7.27,7.27,0,0,0,7.261,7.262h43.57a7.27,7.27,0,0,0,7.262-7.262V575.523a7.27,7.27,0,0,0-7.262-7.262M314.44,573.1c.011,0,.02,0,.031,0l.031,0h14.462c.01,0,.02,0,.031,0l.031,0h7.231v31.471H307.209V573.1Zm2.452-7.259h9.683v2.418h-9.683Zm-19.365,36.308V575.523a2.423,2.423,0,0,1,2.42-2.421h2.42v31.471h-2.42a2.424,2.424,0,0,1-2.42-2.421m48.412,0a2.424,2.424,0,0,1-2.421,2.421H341.1V573.1h2.421a2.424,2.424,0,0,1,2.421,2.421Z" transform="translate(-292.686 -561.002)" fill="#fff"/>
</svg>
