<svg xmlns="http://www.w3.org/2000/svg" width="28.736" height="50.114" viewBox="0 0 28.736 50.114">
  <g id="Group_81" data-name="Group 81" transform="translate(-2441.693 -1491.441)">
    <path id="Path_72" data-name="Path 72" d="M103.012,880.89l-4.093-15.236c-.013-.05-.037-.094-.054-.143a2.308,2.308,0,0,0-.093-.245c-.032-.07-.07-.135-.108-.2s-.081-.137-.128-.2-.1-.122-.149-.18-.1-.116-.16-.169-.115-.1-.175-.144a2.337,2.337,0,0,0-.2-.139c-.063-.039-.128-.072-.2-.106a2.377,2.377,0,0,0-.22-.1c-.073-.028-.148-.049-.225-.07s-.146-.04-.223-.053a2.449,2.449,0,0,0-.263-.026c-.05,0-.1-.015-.149-.015H84.1l-1.9-15.19a2.421,2.421,0,0,0-4.8.6l2.164,17.31a2.421,2.421,0,0,0,2.4,2.12H94.725l3.612,13.444a2.422,2.422,0,0,0,2.336,1.793,2.449,2.449,0,0,0,.63-.083,2.421,2.421,0,0,0,1.709-2.966" transform="translate(2367.334 657.615)" fill="#fff"/>
    <path id="Path_73" data-name="Path 73" d="M82.249,828.342a4.328,4.328,0,1,0-4.327-4.328,4.328,4.328,0,0,0,4.327,4.328" transform="translate(2367.048 671.754)" fill="#fff"/>
    <path id="Path_74" data-name="Path 74" d="M88.04,899.257H73.423a2.42,2.42,0,1,0,0,4.841H88.04a2.42,2.42,0,1,0,0-4.841" transform="translate(2370.69 629.873)" fill="#fff"/>
  </g>
</svg>
