<svg xmlns="http://www.w3.org/2000/svg" width="33.889" height="58.095" viewBox="0 0 33.889 58.095">
  <path id="Path_75" data-name="Path 75" d="M97.032,345.652a12.118,12.118,0,0,1-12.044-10.938,14.448,14.448,0,0,0,9.624,3.675,2.42,2.42,0,0,0,0-4.841,9.694,9.694,0,0,1-9.683-9.682v-.023a12.026,12.026,0,0,0,7.262,2.444,2.42,2.42,0,1,0,0-4.841,7.268,7.268,0,0,1-7.158-6.089A9.617,9.617,0,0,0,89.77,316.6a2.42,2.42,0,0,0,0-4.841,4.847,4.847,0,0,1-4.841-4.841V304.5a2.42,2.42,0,1,0-4.841,0v2.421a4.847,4.847,0,0,1-4.841,4.841,2.42,2.42,0,0,0,0,4.841,9.615,9.615,0,0,0,4.737-1.247,7.267,7.267,0,0,1-7.158,6.089,2.42,2.42,0,0,0,0,4.841,12.024,12.024,0,0,0,7.262-2.444v.023a9.693,9.693,0,0,1-9.682,9.682,2.42,2.42,0,1,0,0,4.841,14.448,14.448,0,0,0,9.624-3.675,12.118,12.118,0,0,1-12.045,10.938,2.421,2.421,0,0,0,0,4.841,16.886,16.886,0,0,0,12.1-5.109v12.371a2.42,2.42,0,0,0,4.841,0V345.385a16.887,16.887,0,0,0,12.1,5.109,2.421,2.421,0,0,0,0-4.841" transform="translate(-65.564 -302.081)" fill="#fff"/>
</svg>
