<svg xmlns="http://www.w3.org/2000/svg" width="58.095" height="58.095" viewBox="0 0 58.095 58.095">
  <g id="Group_82" data-name="Group 82" transform="translate(-2567.293 -1486.234)">
    <path id="Path_76" data-name="Path 76" d="M574.4,40.012a29.047,29.047,0,1,0,29.047,29.047A29.08,29.08,0,0,0,574.4,40.012m0,53.254a24.206,24.206,0,1,1,24.206-24.206A24.234,24.234,0,0,1,574.4,93.266" transform="translate(2021.937 1446.222)" fill="#fff"/>
    <path id="Path_77" data-name="Path 77" d="M600.95,122.229a14.522,14.522,0,0,1-20.539,0,2.421,2.421,0,0,0-3.424,3.422,19.364,19.364,0,0,0,27.387,0,2.421,2.421,0,0,0-3.423-3.423" transform="translate(2005.662 1403.322)" fill="#fff"/>
    <path id="Path_78" data-name="Path 78" d="M588.66,90.577a2.421,2.421,0,0,0,2.421-2.42V83.315a2.42,2.42,0,0,0-4.841,0v4.841a2.421,2.421,0,0,0,2.42,2.42" transform="translate(2000.419 1424.704)" fill="#fff"/>
    <path id="Path_79" data-name="Path 79" d="M619.323,90.577a2.421,2.421,0,0,0,2.42-2.42V83.315a2.42,2.42,0,1,0-4.841,0v4.841a2.421,2.421,0,0,0,2.42,2.42" transform="translate(1984.28 1424.704)" fill="#fff"/>
  </g>
</svg>
