<svg xmlns="http://www.w3.org/2000/svg" width="53.254" height="58.095" viewBox="0 0 53.254 58.095">
  <g id="Group_77" data-name="Group 77" transform="translate(-2676.72 -1082.288)">
    <path id="Path_80" data-name="Path 80" d="M78.205,573.787H97.57a2.421,2.421,0,1,0,0-4.841H78.205a2.421,2.421,0,0,0,0,4.841" transform="translate(2615.458 520.604)" fill="#fff"/>
    <path id="Path_81" data-name="Path 81" d="M98.364,584.956c0-.047,0-.093,0-.141L95.55,559.585c-.009-.081-.024-.161-.04-.239a7.287,7.287,0,0,0-7.089-5.731H55.08a7.287,7.287,0,0,0-7.089,5.731c-.017.078-.031.159-.04.239l-2.813,25.229c-.005.048,0,.094,0,.141s-.013.084-.013.127v14.524a7.27,7.27,0,0,0,7.262,7.262v2.42a2.42,2.42,0,0,0,2.42,2.421h4.841a2.42,2.42,0,0,0,2.42-2.421v-2.42H81.433v2.42a2.42,2.42,0,0,0,2.42,2.421h4.841a2.42,2.42,0,0,0,2.42-2.421v-2.42a7.27,7.27,0,0,0,7.262-7.262V585.083c0-.044-.01-.084-.013-.127m-43.284-26.5H88.42a2.423,2.423,0,0,1,2.333,1.807l2.5,22.4h-43l2.5-22.4a2.423,2.423,0,0,1,2.333-1.807m36.035,43.571H52.385a2.423,2.423,0,0,1-2.42-2.421V587.5H93.535v12.1a2.423,2.423,0,0,1-2.42,2.421" transform="translate(2631.597 528.673)" fill="#fff"/>
    <path id="Path_82" data-name="Path 82" d="M130.519,635.38a3.631,3.631,0,1,0,3.631,3.631,3.631,3.631,0,0,0-3.631-3.631" transform="translate(2588.562 485.638)" fill="#fff"/>
    <path id="Path_83" data-name="Path 83" d="M64.085,635.38a3.631,3.631,0,1,0,3.631,3.631,3.631,3.631,0,0,0-3.631-3.631" transform="translate(2623.528 485.638)" fill="#fff"/>
  </g>
</svg>
