<svg xmlns="http://www.w3.org/2000/svg" width="58.094" height="58.095" viewBox="0 0 58.094 58.095">
  <g id="Group_78" data-name="Group 78" transform="translate(-2769.758 -1080.608)">
    <path id="Path_84" data-name="Path 84" d="M582.746,585.745v-12.1a2.42,2.42,0,1,0-4.841,0v9.683h-9.682a2.42,2.42,0,0,0,0,4.841h12.1a2.42,2.42,0,0,0,2.42-2.42" transform="translate(2213.64 519.07)" fill="#fff"/>
    <path id="Path_85" data-name="Path 85" d="M629.543,629.317a2.42,2.42,0,0,0,2.42-2.42v-7.261a2.42,2.42,0,1,0-4.841,0V626.9a2.42,2.42,0,0,0,2.42,2.42" transform="translate(2181.365 494.862)" fill="#fff"/>
    <path id="Path_86" data-name="Path 86" d="M631.786,649.379a2.35,2.35,0,0,0-.528-.792,2.439,2.439,0,0,0-2.185-.656,2.171,2.171,0,0,0-.448.136,2.683,2.683,0,0,0-.424.224,3.139,3.139,0,0,0-.368.3,2.59,2.59,0,0,0-.3.368,2.149,2.149,0,0,0-.224.423,2.244,2.244,0,0,0-.136.449,2.442,2.442,0,0,0-.048.472,2.32,2.32,0,0,0,.048.472,2.169,2.169,0,0,0,.136.457,2.106,2.106,0,0,0,.224.416,2.225,2.225,0,0,0,.3.368,2.609,2.609,0,0,0,.368.3,2.688,2.688,0,0,0,.424.224,2.81,2.81,0,0,0,.448.136,2.411,2.411,0,0,0,.472.049,2.442,2.442,0,0,0,1.713-.713,2.245,2.245,0,0,0,.3-.368,2.583,2.583,0,0,0,.224-.416,2.739,2.739,0,0,0,.136-.457,2.32,2.32,0,0,0,.048-.472,2.442,2.442,0,0,0-.048-.472,2.887,2.887,0,0,0-.136-.449" transform="translate(2181.362 478.72)" fill="#fff"/>
    <path id="Path_87" data-name="Path 87" d="M593.77,576.644v-1.658a24.206,24.206,0,1,0-24.206,24.206h1.658a16.93,16.93,0,1,0,22.548-22.548m-24.206,17.707a19.367,19.367,0,1,1,19.365-19.365v.193a16.817,16.817,0,0,0-19.171,19.172Zm16.944,9.683a12.1,12.1,0,1,1,12.1-12.1,12.118,12.118,0,0,1-12.1,12.1" transform="translate(2224.4 529.828)" fill="#fff"/>
  </g>
</svg>
